<?xml version="1.0" encoding="UTF-8"?>
<svg width="177px" height="26px" viewBox="0 0 177 26" version="1.1" xmlns="http://www.w3.org/2000/svg" xmlns:xlink="http://www.w3.org/1999/xlink">
    <title>SPORTS</title>
    <g id="Page-1" stroke="none" stroke-width="1" fill="none" fill-rule="evenodd">
        <g id="Home-Copy" transform="translate(-368.000000, -2213.000000)">
            <g id="SPORTS" transform="translate(368.000000, 2213.000000)">
                <path d="M87.6247034,0 L82.2569505,12.9854775 L88.2529716,12.9854775 L93.6204908,0 L87.6247034,0 Z M80.4296651,17.6476757 C80.4296651,19.4496396 81.8285964,20.937027 83.7131671,20.937027 C85.6545555,20.937027 87.1107721,19.3924865 87.1107721,17.5333694 C87.1107721,15.7025946 85.711607,14.244018 83.8272701,14.244018 C81.885648,14.244018 80.4296651,15.8169009 80.4296651,17.6476757 L80.4296651,17.6476757 Z M75.0048606,13.5289009 C75.0048606,11.9272072 73.8056096,10.6400901 72.1497127,10.6400901 C70.4935819,10.6400901 69.2943309,11.9272072 69.2943309,13.5289009 C69.2943309,15.1305946 70.4935819,16.4177117 72.1497127,16.4177117 C73.8056096,16.4177117 75.0048606,15.1305946 75.0048606,13.5289009 L75.0048606,13.5289009 Z M58.844784,13.5289009 C58.844784,11.9272072 57.645533,10.6400901 55.9894022,10.6400901 C54.3335053,10.6400901 53.1342543,11.9272072 53.1342543,13.5289009 C53.1342543,15.1305946 54.3335053,16.4177117 55.9894022,16.4177117 C57.645533,16.4177117 58.844784,15.1305946 58.844784,13.5289009 L58.844784,13.5289009 Z M24.1831803,16.4748649 C22.4985238,16.4748649 21.2136955,15.187982 21.2136955,13.5289009 C21.2136955,11.8700541 22.4985238,10.5829369 24.1831803,10.5829369 C25.8390773,10.5829369 27.1239055,11.8700541 27.1239055,13.5289009 C27.1239055,15.187982 25.8390773,16.4748649 24.1831803,16.4748649 L24.1831803,16.4748649 Z M0.000116908851,6.34962162 L6.11000727,20.7939099 L3.91165324,25.9995315 L9.27917239,25.9995315 L17.416496,6.34962162 L12.0772688,6.34962162 L8.76524108,14.7588649 L5.4817391,6.34962162 L0.000116908851,6.34962162 Z M63.6413203,13.5289009 C63.6413203,17.8191351 60.3580522,21.0513333 55.9894022,21.0513333 C51.6212199,21.0513333 48.337718,17.8191351 48.337718,13.5289009 C48.337718,9.23843243 51.6212199,6.00646847 55.9894022,6.00646847 C60.3580522,6.00646847 63.6413203,9.23843243 63.6413203,13.5289009 L63.6413203,13.5289009 Z M79.8016308,13.5289009 C79.8016308,17.8191351 76.5181288,21.0513333 72.1497127,21.0513333 C67.7812966,21.0513333 64.4980284,17.8191351 64.4980284,13.5289009 C64.4980284,9.23843243 67.7812966,6.00646847 72.1497127,6.00646847 C76.5181288,6.00646847 79.8016308,9.23843243 79.8016308,13.5289009 L79.8016308,13.5289009 Z M33.5765727,0 L33.5765727,20.6793694 L38.6300746,20.6793694 L38.6300746,13.0426306 C38.6300746,11.5552432 39.3439201,10.6686667 40.4861196,10.6686667 C41.5995594,10.6686667 42.2278276,11.4409369 42.2278276,12.8709369 L42.2278276,20.6793694 L47.2813296,20.6793694 L47.2813296,11.6697838 C47.2813296,8.1803964 45.3969927,6.00646847 42.3704564,6.00646847 C40.7430852,6.00646847 39.4867827,6.63562162 38.6015489,7.75127928 L38.6015489,0 L33.5765727,0 Z M27.0098025,6.34962162 L27.0098025,7.69412613 C26.2389055,6.69277477 24.8112147,6.00646847 23.1553177,6.00646847 C19.2437814,6.00646847 16.3313481,9.46727928 16.3313481,13.5289009 C16.3313481,17.7048288 19.2152556,21.0513333 23.1553177,21.0513333 C24.8112147,21.0513333 26.2389055,20.3933694 27.0098025,19.3350991 L27.0098025,20.6793694 L31.8921499,20.6793694 L31.8921499,6.34962162 L27.0098025,6.34962162 Z" id="Fill-1" fill="#6001D2"></path>
                <path d="M104.971522,16.013236 C104.971522,13.6758126 103.387407,12.4064973 100.190184,11.5117225 L99.354753,11.2810018 C98.1737398,10.9633802 97.7128851,10.8481369 97.7128851,10.5019387 C97.7128851,10.0978847 98.0299419,9.89597477 98.8073857,9.89597477 C100.276462,9.89597477 101.687786,10.3864613 103.156863,11.1079027 L104.769971,7.32783063 C102.78252,6.34662342 100.852589,5.82732613 98.8073857,5.82732613 C95.0917886,5.82732613 92.5569709,7.70283964 92.5569709,10.7326595 C92.5569709,13.3008036 94.1988388,14.5415423 97.4538151,15.2917946 L98.2024993,15.4648937 C99.297,15.7246595 99.7866143,15.8689477 99.7866143,16.2727676 C99.7866143,16.7634883 99.297,16.9075423 98.5480819,16.9075423 C96.9352074,16.9075423 95.1780674,16.3306234 93.7379841,15.5225153 L91.8943316,19.2737766 C93.622712,20.3992721 96.0422576,21.0340468 98.4905627,21.0340468 C102.292672,21.0340468 104.971522,19.216155 104.971522,16.013236 L104.971522,16.013236 Z M154.168637,1.72986667 L154.168637,6.20233514 L152.238705,6.20233514 L152.238705,10.4443171 L154.168637,10.4443171 L154.168637,15.5803712 C154.168637,19.014245 156.184847,21.005236 159.497342,21.005236 C160.995178,21.005236 162.176192,20.7166595 162.781078,20.4859387 L162.781078,16.0420468 C162.320223,16.1863351 161.77309,16.3015784 161.254482,16.3015784 C160.044709,16.3015784 159.411063,15.7537045 159.411063,14.3393982 L159.411063,10.4443171 L162.781078,10.4443171 L162.781078,6.20233514 L159.411063,6.20233514 L159.411063,1.72986667 L154.168637,1.72986667 Z M134.582196,13.4162811 C134.582196,15.003218 133.31467,16.2727676 131.730321,16.2727676 C130.146206,16.2727676 128.878914,15.003218 128.878914,13.4162811 C128.878914,11.8293441 130.146206,10.5595604 131.730321,10.5595604 C133.31467,10.5595604 134.582196,11.8293441 134.582196,13.4162811 L134.582196,13.4162811 Z M131.730321,5.79851532 C127.208287,5.79851532 123.838038,9.0881009 123.838038,13.4162811 C123.838038,17.7446955 127.208287,21.0340468 131.730321,21.0340468 C136.22383,21.0340468 139.593844,17.7446955 139.593844,13.4162811 C139.593844,9.0881009 136.22383,5.79851532 131.730321,5.79851532 L131.730321,5.79851532 Z M111.48124,13.4162811 C111.48124,11.7714883 112.777526,10.4731279 114.447919,10.4731279 C116.118781,10.4731279 117.414832,11.7714883 117.414832,13.4162811 C117.414832,15.0610739 116.118781,16.3596685 114.447919,16.3596685 C112.777526,16.3596685 111.48124,15.0610739 111.48124,13.4162811 L111.48124,13.4162811 Z M111.625272,25.997236 L111.625272,19.1009117 C112.517988,20.3416505 114.073577,21.0340468 115.801724,21.0340468 C119.719106,21.0340468 122.570746,17.6577946 122.570746,13.4162811 C122.570746,9.14572252 119.747865,5.79851532 115.801724,5.79851532 C114.073577,5.79851532 112.546748,6.51995676 111.625272,7.78950631 L111.625272,6.20233514 L106.382845,6.20233514 L106.382845,25.997236 L111.625272,25.997236 Z M176.837497,16.013236 C176.837497,13.6758126 175.253382,12.4064973 172.055925,11.5117225 L171.220728,11.2810018 C170.039715,10.9633802 169.57886,10.8481369 169.57886,10.5019387 C169.57886,10.0978847 169.895683,9.89597477 170.673361,9.89597477 C172.142437,9.89597477 173.553761,10.3864613 175.022838,11.1079027 L176.635946,7.32783063 C174.648262,6.34662342 172.718564,5.82732613 170.673361,5.82732613 C166.95753,5.82732613 164.422946,7.70283964 164.422946,10.7326595 C164.422946,13.3008036 166.064814,14.5415423 169.319556,15.2917946 L170.068474,15.4648937 C171.163209,15.7246595 171.652823,15.8689477 171.652823,16.2727676 C171.652823,16.7634883 171.163209,16.9075423 170.414291,16.9075423 C168.801182,16.9075423 167.044276,16.3306234 165.603725,15.5225153 L163.76054,19.2737766 C165.488687,20.3992721 167.908232,21.0340468 170.356771,21.0340468 C174.158647,21.0340468 176.837497,19.216155 176.837497,16.013236 L176.837497,16.013236 Z M150.942654,5.97161441 C150.798622,5.91399279 150.481799,5.85613694 150.164976,5.85613694 C148.321324,5.85613694 146.996513,6.77948829 146.218835,8.42428108 L146.218835,6.20233514 L141.033927,6.20233514 L141.033927,20.6299928 L146.247594,20.6299928 L146.247594,15.3784613 C146.247594,12.6948396 147.486127,11.1943351 149.675128,11.1943351 C150.107457,11.1943351 150.568312,11.252191 150.942654,11.396245 L150.942654,5.97161441 Z" id="Fill-3" fill="#232A31"></path>
            </g>
        </g>
    </g>
</svg>